<svg xmlns="http://www.w3.org/2000/svg" xmlns:xlink="http://www.w3.org/1999/xlink" width="1922" zoomAndPan="magnify" viewBox="0 0 1441.5 809.249975" height="1079" preserveAspectRatio="xMidYMid meet" version="1.0"><defs><clipPath id="ab606984ee"><path d="M 4 664 L 1440.582031 664 L 1440.582031 672 L 4 672 Z M 4 664 " clip-rule="nonzero"/></clipPath><clipPath id="7f5d6dbcea"><path d="M 4 536 L 1440.582031 536 L 1440.582031 545 L 4 545 Z M 4 536 " clip-rule="nonzero"/></clipPath><clipPath id="2c670f069a"><path d="M 4 409 L 1440.582031 409 L 1440.582031 417 L 4 417 Z M 4 409 " clip-rule="nonzero"/></clipPath><clipPath id="1d9e16ed75"><path d="M 4 281 L 1440.582031 281 L 1440.582031 290 L 4 290 Z M 4 281 " clip-rule="nonzero"/></clipPath><clipPath id="8bcd25d0ee"><path d="M 4 154 L 1440.582031 154 L 1440.582031 163 L 4 163 Z M 4 154 " clip-rule="nonzero"/></clipPath><clipPath id="4a355caed1"><path d="M 4 27 L 1440.582031 27 L 1440.582031 35 L 4 35 Z M 4 27 " clip-rule="nonzero"/></clipPath><clipPath id="f6594c765d"><path d="M 0.417969 0 L 336 0 L 336 668 L 0.417969 668 Z M 0.417969 0 " clip-rule="nonzero"/></clipPath><clipPath id="cb96212873"><path d="M 271 0 L 607 0 L 607 808.5 L 271 808.5 Z M 271 0 " clip-rule="nonzero"/></clipPath><clipPath id="418e04249c"><path d="M 861 0 L 1078 0 L 1078 808.5 L 861 808.5 Z M 861 0 " clip-rule="nonzero"/></clipPath><clipPath id="a7c42b7e26"><path d="M 1302 0 L 1440.582031 0 L 1440.582031 204 L 1302 204 Z M 1302 0 " clip-rule="nonzero"/></clipPath></defs><g clip-path="url(#ab606984ee)"><path stroke-linecap="butt" transform="matrix(0.749306, 0, 0, 0.749306, 7.970665, 664.243813)" fill="none" stroke-linejoin="miter" d="M -0.00255623 5.002465 L 1909.917069 5.002465 " stroke="#154e54" stroke-width="10" stroke-opacity="1" stroke-miterlimit="4"/></g><g clip-path="url(#7f5d6dbcea)"><path stroke-linecap="butt" transform="matrix(0.749306, 0, 0, 0.749306, 7.970665, 536.810589)" fill="none" stroke-linejoin="miter" d="M -0.00255623 5.001971 L 1909.917069 5.001971 " stroke="#154e54" stroke-width="10" stroke-opacity="1" stroke-miterlimit="4"/></g><g clip-path="url(#2c670f069a)"><path stroke-linecap="butt" transform="matrix(0.749306, 0, 0, 0.749306, 7.970665, 409.377414)" fill="none" stroke-linejoin="miter" d="M -0.00255623 5.001413 L 1909.917069 5.001413 " stroke="#154e54" stroke-width="10" stroke-opacity="1" stroke-miterlimit="4"/></g><g clip-path="url(#1d9e16ed75)"><path stroke-linecap="butt" transform="matrix(0.749306, 0, 0, 0.749306, 7.970665, 281.944226)" fill="none" stroke-linejoin="miter" d="M -0.00255623 5.000871 L 1909.917069 5.000871 " stroke="#154e54" stroke-width="10" stroke-opacity="1" stroke-miterlimit="4"/></g><g clip-path="url(#8bcd25d0ee)"><path stroke-linecap="butt" transform="matrix(0.749306, 0, 0, 0.749306, 7.970665, 154.511024)" fill="none" stroke-linejoin="miter" d="M -0.00255623 5.000348 L 1909.917069 5.000348 " stroke="#154e54" stroke-width="10" stroke-opacity="1" stroke-miterlimit="4"/></g><g clip-path="url(#4a355caed1)"><path stroke-linecap="butt" transform="matrix(0.749306, 0, 0, 0.749306, 7.970665, 27.077825)" fill="none" stroke-linejoin="miter" d="M -0.00255623 4.999822 L 1909.917069 4.999822 " stroke="#154e54" stroke-width="10" stroke-opacity="1" stroke-miterlimit="4"/></g><g clip-path="url(#f6594c765d)"><path stroke-linecap="butt" transform="matrix(0.328192, -0.673609, 0.673609, 0.328192, 0.415189, 649.467461)" fill="none" stroke-linejoin="miter" d="M -0.00178911 1.99985 L 963.934637 1.99897 " stroke="#154e54" stroke-width="4" stroke-opacity="1" stroke-miterlimit="4"/></g><g clip-path="url(#cb96212873)"><path stroke-linecap="butt" transform="matrix(0.261952, -0.702025, 0.702025, 0.261952, 286.831505, 807.240579)" fill="none" stroke-linejoin="miter" d="M -0.00197765 1.999056 L 1149.467485 1.998137 " stroke="#154e54" stroke-width="4" stroke-opacity="1" stroke-miterlimit="4"/></g><g clip-path="url(#418e04249c)"><path stroke-linecap="butt" transform="matrix(-0.166589, -0.730552, 0.730552, -0.166589, 1059.547825, 799.561193)" fill="none" stroke-linejoin="miter" d="M 0.00222177 1.998978 L 1092.892841 2.000256 " stroke="#154e54" stroke-width="4" stroke-opacity="1" stroke-miterlimit="4"/></g><path stroke-linecap="butt" transform="matrix(-0.303236, -0.685206, 0.685206, -0.303236, 1407.60855, 696.736625)" fill="none" stroke-linejoin="miter" d="M 0.000708004 2.002513 L 970.964288 1.998486 " stroke="#154e54" stroke-width="4" stroke-opacity="1" stroke-miterlimit="4"/><g clip-path="url(#a7c42b7e26)"><path stroke-linecap="butt" transform="matrix(-0.406835, -0.629241, 0.629241, -0.406835, 1437.820884, 186.989013)" fill="none" stroke-linejoin="miter" d="M 0.000408896 1.998292 L 294.580863 2.00107 " stroke="#154e54" stroke-width="4" stroke-opacity="1" stroke-miterlimit="4"/></g></svg>