<?xml version="1.0" encoding="UTF-8"?>
<svg version="1.1" xmlns="http://www.w3.org/2000/svg" width="160" height="151">
<path d="M0 0 C1.67527538 1.67527538 1.13005577 3.72786922 1.1328125 6.0234375 C1.13474609 7.55484375 1.13474609 7.55484375 1.13671875 9.1171875 C1.13285156 10.19226563 1.12898438 11.26734375 1.125 12.375 C1.13080078 13.97601563 1.13080078 13.97601563 1.13671875 15.609375 C1.13542969 16.63289063 1.13414063 17.65640625 1.1328125 18.7109375 C1.13168457 19.65243652 1.13055664 20.59393555 1.12939453 21.56396484 C1 24 1 24 0 27 C-2.66015625 27.921875 -2.66015625 27.921875 -6.0625 28.75 C-13.42551632 30.89754643 -18.44984586 33.61170056 -22.37109375 40.359375 C-25.95532747 48.34638717 -26.10330888 55.68629774 -23.03515625 63.86328125 C-20.21933613 69.67555901 -16.10651353 73.68136003 -10.1953125 76.27734375 C-2.49750539 78.8113194 4.65719213 78.46743705 12 75 C18.86498403 70.72713925 21.64079694 65.55645734 24 58 C24.66476395 55.99936677 25.33122123 53.99929473 26 52 C30.31248609 51.97113463 34.62494762 51.95324745 38.9375 51.9375 C40.16919922 51.92912109 41.40089844 51.92074219 42.66992188 51.91210938 C43.83974609 51.90888672 45.00957031 51.90566406 46.21484375 51.90234375 C47.84087524 51.89448853 47.84087524 51.89448853 49.49975586 51.88647461 C52 52 52 52 53 53 C54.62919419 65.49939149 49.47506543 77.27054976 42 87 C32.11374438 98.86350674 19.42663587 105.31384465 4.1875 106.8125 C-11.87445773 107.64960529 -24.75912484 103.34389743 -37 93 C-47.15736775 83.51340182 -53.65876109 71.95866073 -54.1796875 57.98046875 C-54.55073741 41.90282289 -51.01596534 28.67276778 -40.4375 16.125 C-29.69688662 5.02418313 -15.47389392 -1.3062378 0 0 Z " fill="#0D363A" transform="translate(89,29)"/>
<path d="M0 0 C1.67527538 1.67527538 1.13005577 3.72786922 1.1328125 6.0234375 C1.13474609 7.55484375 1.13474609 7.55484375 1.13671875 9.1171875 C1.13285156 10.19226563 1.12898438 11.26734375 1.125 12.375 C1.13080078 13.97601563 1.13080078 13.97601563 1.13671875 15.609375 C1.13542969 16.63289063 1.13414063 17.65640625 1.1328125 18.7109375 C1.13168457 19.65243652 1.13055664 20.59393555 1.12939453 21.56396484 C1 24 1 24 0 27 C-2.66015625 27.921875 -2.66015625 27.921875 -6.0625 28.75 C-12.40768302 30.60067838 -16.92182421 32.69636252 -21 38 C-23.60823056 42.8808993 -24.91601386 47.5800693 -26 53 C-34.58 53 -43.16 53 -52 53 C-49.97081337 69.78690754 -45.19218717 82.37137844 -32 93.375 C-26.05414999 97.88910392 -20.54750062 101.24524994 -13 102 C-13 102.66 -13 103.32 -13 104 C-10.33326258 104.02727345 -7.66681131 104.04696948 -5 104.0625 C-3.88431641 104.07506836 -3.88431641 104.07506836 -2.74609375 104.08789062 C12.82408239 104.15558704 25.45471288 99.08015661 36.84375 88.24609375 C45.3711944 78.87025565 50.17803294 66.53499768 51 54 C51.66 54 52.32 54 53 54 C53.92398777 67.62881958 48.56908737 79.11709515 39.96875 89.4375 C29.20261558 100.98378909 16.11109182 106.19107502 0.58984375 107 C-15.41860109 107 -27.85787849 101.5383965 -39.484375 90.6796875 C-50.5369253 79.14497896 -54.37687358 66.77468329 -54.22827148 51.2265625 C-53.88166716 36.60147193 -48.06301892 24.00625279 -37.875 13.4765625 C-27.0035187 4.11172671 -14.43743647 -1.21874464 0 0 Z " fill="#1DA57F" transform="translate(89,29)"/>
<path d="M0 0 C5.24028382 4.85684842 8.2550425 8.37805254 8.8125 15.625 C8.47956655 20.6190018 7.60530139 25.10903543 4.16796875 28.921875 C-1.29954041 33.62808542 -5.51742662 34.90158034 -12.61328125 34.75 C-17.79050528 34.06256776 -21.45353107 31.75114884 -24.78125 27.765625 C-28.24759465 22.36803118 -28.88777049 16.98656887 -27.8125 10.75 C-25.80113155 5.81300472 -23.16776608 2.64104835 -18.875 -0.5 C-12.55758658 -2.56751712 -6.06479266 -2.86699289 0 0 Z " fill="#093739" transform="translate(98.4375,65.625)"/>
<path d="M0 0 C11.55 0 23.1 0 35 0 C36.27212769 3.81638308 35.53733809 5.37815632 34.0859375 9 C31.70043145 13.39344999 27.54958403 16.09532954 23 18 C16.47150437 18.96305448 11.06316805 18.48213345 5.66015625 14.5546875 C2.83751326 11.91136536 1.51244048 9.59204615 0 6 C0 4.02 0 2.04 0 0 Z " fill="#1EA27D" transform="translate(71,82)"/>
<path d="M0 0 C0.66 0 1.32 0 2 0 C2.08636719 0.78761719 2.17273437 1.57523437 2.26171875 2.38671875 C4.30410104 18.21986589 9.64143806 30.0667064 22 40.375 C27.94585001 44.88910392 33.45249938 48.24524994 41 49 C41 49.66 41 50.32 41 51 C43.66673742 51.02727345 46.33318869 51.04696948 49 51.0625 C50.11568359 51.07506836 50.11568359 51.07506836 51.25390625 51.08789062 C66.82408239 51.15558704 79.45471288 46.08015661 90.84375 35.24609375 C99.3711944 25.87025565 104.17803294 13.53499768 105 1 C105.66 1 106.32 1 107 1 C107.92398777 14.62881958 102.56908737 26.11709515 93.96875 36.4375 C83.20261558 47.98378909 70.11109182 53.19107502 54.58984375 54 C38.58139891 54 26.14212151 48.5383965 14.515625 37.6796875 C5.47813757 28.24794726 -0.04317926 17.06972859 -0.125 3.9375 C-0.08375 2.638125 -0.0425 1.33875 0 0 Z " fill="#436468" transform="translate(35,82)"/>
<path d="M0 0 C1.67527538 1.67527538 1.13005577 3.72786922 1.1328125 6.0234375 C1.13474609 7.55484375 1.13474609 7.55484375 1.13671875 9.1171875 C1.13285156 10.19226563 1.12898438 11.26734375 1.125 12.375 C1.13080078 13.97601563 1.13080078 13.97601563 1.13671875 15.609375 C1.13542969 16.63289063 1.13414063 17.65640625 1.1328125 18.7109375 C1.13168457 19.65243652 1.13055664 20.59393555 1.12939453 21.56396484 C1 24 1 24 0 27 C-1.9375 27.8125 -1.9375 27.8125 -4 28 C-4.66 27.34 -5.32 26.68 -6 26 C-4.68 25.67 -3.36 25.34 -2 25 C-2 17.08 -2 9.16 -2 1 C-19.09126868 4.73871502 -32.92301704 9.71381674 -43.23828125 24.8125 C-44.24557897 26.49262593 -45.12393244 28.24786488 -46 30 C-46.34804688 30.64066406 -46.69609375 31.28132813 -47.0546875 31.94140625 C-50.43999657 38.65024868 -51.1992502 45.59306436 -52 53 C-52.66 53 -53.32 53 -54 53 C-54.50909697 38.99983327 -49.43614297 26.79884339 -40.4375 16.125 C-29.69688662 5.02418313 -15.47389392 -1.3062378 0 0 Z " fill="#61BEA6" transform="translate(89,29)"/>
<path d="M0 0 C0.66 0 1.32 0 2 0 C2.08636719 0.78761719 2.17273437 1.57523437 2.26171875 2.38671875 C4.30410104 18.21986589 9.64143806 30.0667064 22 40.375 C27.60242739 44.64351611 33.42468974 47.53425865 40 50 C40 50.66 40 51.32 40 52 C25.86895513 48.7814323 15.16553877 40.50457473 7.1875 28.5625 C4.32989958 23.8692656 2.35595314 19.31533629 1 14 C0.773125 13.175 0.54625 12.35 0.3125 11.5 C-0.16616909 7.67064726 -0.07555986 3.85355305 0 0 Z " fill="#4A696C" transform="translate(35,82)"/>
<path d="M0 0 C5.42306666 5.0262569 8.06718618 8.20850883 8.51953125 15.6171875 C8.53371094 16.19726562 8.54789063 16.77734375 8.5625 17.375 C5.24993308 15.71871654 4.86821982 12.17550119 3.66015625 8.8203125 C2.55526351 6.35887884 1.6568162 5.04415426 -0.4375 3.375 C-1.4275 3.045 -2.4175 2.715 -3.4375 2.375 C-3.4375 1.715 -3.4375 1.055 -3.4375 0.375 C-5.33396998 0.48993757 -7.22968332 0.61739642 -9.125 0.75 C-10.18074219 0.81960937 -11.23648438 0.88921875 -12.32421875 0.9609375 C-15.34427269 1.36260089 -17.67828054 2.11569019 -20.4375 3.375 C-20.4375 4.035 -20.4375 4.695 -20.4375 5.375 C-21.0975 5.375 -21.7575 5.375 -22.4375 5.375 C-22.7675 6.695 -23.0975 8.015 -23.4375 9.375 C-24.0975 9.375 -24.7575 9.375 -25.4375 9.375 C-25.7675 11.685 -26.0975 13.995 -26.4375 16.375 C-27.0975 16.375 -27.7575 16.375 -28.4375 16.375 C-27.47850202 9.93396881 -26.19915935 5.92022029 -21.4375 1.375 C-15.31686262 -3.10351516 -6.72023819 -3.17683987 0 0 Z " fill="#315257" transform="translate(98.4375,65.625)"/>
<path d="M0 0 C1.32 0.33 2.64 0.66 4 1 C4.02899599 4.77081722 4.04679729 8.54160583 4.0625 12.3125 C4.07087891 13.38435547 4.07925781 14.45621094 4.08789062 15.56054688 C4.09111328 16.58857422 4.09433594 17.61660156 4.09765625 18.67578125 C4.10289307 19.62364502 4.10812988 20.57150879 4.11352539 21.5480957 C4 24 4 24 3 27 C1.0625 27.8125 1.0625 27.8125 -1 28 C-1.66 27.34 -2.32 26.68 -3 26 C-1.68 25.67 -0.36 25.34 1 25 C0.67 16.75 0.34 8.5 0 0 Z " fill="#58B99E" transform="translate(86,29)"/>
<path d="M0 0 C0 0.66 0 1.32 0 2 C-1.19625 2.515625 -2.3925 3.03125 -3.625 3.5625 C-9.66337717 6.60840707 -13.37397671 10.89188939 -15.8125 17.1875 C-16.62500412 19.79606587 -17.35978591 22.35104079 -18 25 C-18.66 25 -19.32 25 -20 25 C-20.62543433 17.0257123 -20.62543433 17.0257123 -18.4375 13.4375 C-17.2309375 12.2309375 -17.2309375 12.2309375 -16 11 C-14.78880552 9.56490989 -13.58065932 8.12724349 -12.375 6.6875 C-10.5859375 4.57421875 -10.5859375 4.57421875 -9 3 C-8.34 3 -7.68 3 -7 3 C-7 2.34 -7 1.68 -7 1 C-4 0 -4 0 0 0 Z " fill="#35A688" transform="translate(81,56)"/>
<path d="M0 0 C0.66 0 1.32 0 2 0 C2.21914063 0.85722656 2.43828125 1.71445313 2.6640625 2.59765625 C5.36172298 12.32458652 8.01624617 17.91707593 16.875 22.9375 C18.24270194 23.63940644 19.61529424 24.33226411 21 25 C17.98968256 25.93423645 17.13349732 26.04449911 14 25 C14 24.34 14 23.68 14 23 C12.68 22.67 11.36 22.34 10 22 C10 21.34 10 20.68 10 20 C9.34 20 8.68 20 8 20 C6.4921875 18.35546875 6.4921875 18.35546875 4.875 16.1875 C4.06675781 15.12595703 4.06675781 15.12595703 3.2421875 14.04296875 C2 12 2 12 2 9 C1.34 9 0.68 9 0 9 C0 6.03 0 3.06 0 0 Z " fill="#214145" transform="translate(61,82)"/>
<path d="M0 0 C0.66 0 1.32 0 2 0 C2.12117188 0.86882812 2.24234375 1.73765625 2.3671875 2.6328125 C2.53476562 3.78523438 2.70234375 4.93765625 2.875 6.125 C3.03742187 7.26195313 3.19984375 8.39890625 3.3671875 9.5703125 C3.91602419 12.99899292 3.91602419 12.99899292 5.0703125 16.1796875 C6 19 6 19 6 23 C5.34 23 4.68 23 4 23 C1.24331424 15.04202037 -0.16547142 8.43904242 0 0 Z " fill="#517578" transform="translate(35,82)"/>
<path d="M0 0 C-0.33 0.99 -0.66 1.98 -1 3 C-3.0625 3.6875 -3.0625 3.6875 -5 4 C-5 4.66 -5 5.32 -5 6 C-5.66 6 -6.32 6 -7 6 C-7.33 7.32 -7.66 8.64 -8 10 C-8.66 10 -9.32 10 -10 10 C-10.33 12.31 -10.66 14.62 -11 17 C-11.66 17 -12.32 17 -13 17 C-12.03756963 10.53591543 -10.65335987 6.65335987 -6 2 C-3 0 -3 0 0 0 Z " fill="#204649" transform="translate(83,65)"/>
<path d="M0 0 C0.33 0 0.66 0 1 0 C1.19573608 1.43640171 1.38127816 2.87419504 1.5625 4.3125 C1.66691406 5.11300781 1.77132812 5.91351563 1.87890625 6.73828125 C2 9 2 9 1 12 C8.92 12.33 16.84 12.66 25 13 C25 13.33 25 13.66 25 14 C16.42 14 7.84 14 -1 14 C-1 3.875 -1 3.875 0 0 Z " fill="#28917A" transform="translate(38,68)"/>
<path d="M0 0 C0.33 0 0.66 0 1 0 C1.33 4.95 1.66 9.9 2 15 C2.33 15 2.66 15 3 15 C2.67 17.97 2.34 20.94 2 24 C0.68 24.33 -0.64 24.66 -2 25 C-2.66 24.34 -3.32 23.68 -4 23 C-2.68 22.67 -1.36 22.34 0 22 C0 14.74 0 7.48 0 0 Z " fill="#43AE90" transform="translate(87,32)"/>
<path d="M0 0 C0.66 0.33 1.32 0.66 2 1 C0.84209569 7.10531365 -0.40430081 10.71764394 -5 15 C-8.3125 15.875 -8.3125 15.875 -11 16 C-10.2575 15.46375 -9.515 14.9275 -8.75 14.375 C-4.04982541 10.31575831 -1.69348465 5.92719628 0 0 Z " fill="#3FA688" transform="translate(105,82)"/>
<path d="M0 0 C2.40593035 1.06930238 4.25620188 2.20773125 6.3125 3.875 C9.40125621 6.31727235 12.55121572 8.10654981 16 10 C12.98968256 10.93423645 12.13349732 11.04449911 9 10 C9 9.34 9 8.68 9 8 C7.68 7.67 6.36 7.34 5 7 C5 6.34 5 5.68 5 5 C4.34 5 3.68 5 3 5 C1.375 3.625 1.375 3.625 0 2 C0 1.34 0 0.68 0 0 Z " fill="#214A4D" transform="translate(66,97)"/>
<path d="M0 0 C0.78375 0.474375 1.5675 0.94875 2.375 1.4375 C6.92189258 3.39736749 11.09893144 3.71910872 16 4 C16 4.66 16 5.32 16 6 C9.86946489 6.32712342 5.37330889 6.39366878 0 3 C0 2.01 0 1.02 0 0 Z " fill="#42AA8E" transform="translate(77,94)"/>
<path d="M0 0 C0.82273185 2.36734455 1.10990889 3.64262754 0.36328125 6.0703125 C0.01652344 6.74835938 -0.33023438 7.42640625 -0.6875 8.125 C-1.02136719 8.80820313 -1.35523437 9.49140625 -1.69921875 10.1953125 C-3.22681238 12.31467663 -4.60786878 13.02300325 -7 14 C-6.34097701 10.42959697 -4.83770842 7.82267745 -2.9375 4.75 C-2.38964844 3.85796875 -1.84179688 2.9659375 -1.27734375 2.046875 C-0.64505859 1.03367187 -0.64505859 1.03367187 0 0 Z " fill="#1C4143" transform="translate(114,88)"/>
<path d="M0 0 C1.66666667 1.66666667 3.33333333 3.33333333 5 5 C5.763125 5.721875 6.52625 6.44375 7.3125 7.1875 C9 9 9 9 9 11 C5.17035345 9.43977363 2.67809511 7.12444429 0 4 C0 2.68 0 1.36 0 0 Z " fill="#506D75" transform="translate(47,113)"/>
<path d="M0 0 C0.66 0 1.32 0 2 0 C2.50367757 1.45706726 3.00282556 2.91570096 3.5 4.375 C3.91765625 5.59316406 3.91765625 5.59316406 4.34375 6.8359375 C5 9 5 9 5 11 C4.34 11 3.68 11 3 11 C0.84694043 7.14243493 -0.39253254 4.44870215 0 0 Z " fill="#3BA285" transform="translate(71,83)"/>
<path d="M0 0 C0.66 0.33 1.32 0.66 2 1 C0.02 4.63 -1.96 8.26 -4 12 C-5 9 -5 9 -4.2578125 6.9921875 C-3.88398437 6.29351562 -3.51015625 5.59484375 -3.125 4.875 C-2.75632813 4.17117187 -2.38765625 3.46734375 -2.0078125 2.7421875 C-1 1 -1 1 0 0 Z " fill="#2FA381" transform="translate(45,54)"/>
<path d="M0 0 C0.33 0 0.66 0 1 0 C1.19658808 1.41543415 1.38187546 2.83244031 1.5625 4.25 C1.66691406 5.03890625 1.77132812 5.8278125 1.87890625 6.640625 C2.00027349 9.00532874 1.69633257 10.7511037 1 13 C0.34 13 -0.32 13 -1 13 C-1.07654536 8.48382401 -1.10228696 4.40914783 0 0 Z " fill="#359D81" transform="translate(38,68)"/>
<path d="M0 0 C2.475 0.495 2.475 0.495 5 1 C4.01 1.495 4.01 1.495 3 2 C3 4.97 3 7.94 3 11 C2.67 11 2.34 11 2 11 C1.93941406 10.37351562 1.87882813 9.74703125 1.81640625 9.1015625 C1.73261719 8.28429687 1.64882812 7.46703125 1.5625 6.625 C1.48128906 5.81289062 1.40007812 5.00078125 1.31640625 4.1640625 C1.10909886 1.95727195 1.10909886 1.95727195 0 0 Z " fill="#253B3F" transform="translate(137,81)"/>
</svg>
